HIERARCHY
ROOT SpineBase
{
  OFFSET 0.000000 0.000000 0.000000
  CHANNELS 6 Xposition Yposition Zposition Zrotation Xrotation Yrotation
  JOINT SpineMid
  {
    OFFSET 0.000000 26.806690 0.000000
    CHANNELS 3 Zrotation Xrotation Yrotation
    JOINT SpineShoulder
    {
      OFFSET -0.137200 20.094795 -0.709615
      CHANNELS 3 Zrotation Xrotation Yrotation
      JOINT Neck
      {
        OFFSET -0.092256 6.719433 -0.533233
        CHANNELS 3 Zrotation Xrotation Yrotation
        JOINT Head
        {
          OFFSET 2.533446 12.755461 -2.707115
          CHANNELS 3 Zrotation Xrotation Yrotation
          End Site
          {
            OFFSET 0 0 0
          }
        }
      }
      JOINT ShoulderLeft
      {
        OFFSET -14.497302 -0.983973 -3.743577
        CHANNELS 3 Zrotation Xrotation Yrotation
        JOINT ElbowLeft
        {
          OFFSET -6.909606 -20.250653 3.388877
          CHANNELS 3 Zrotation Xrotation Yrotation
          JOINT WristLeft
          {
            OFFSET -0.982300 -19.951310 -8.639292
            CHANNELS 3 Zrotation Xrotation Yrotation
            JOINT HandLeft
            {
              OFFSET 2.454405 -6.149853 -2.288717
              CHANNELS 3 Zrotation Xrotation Yrotation
              JOINT HandTipLeft
              {
                OFFSET 1.250597 -4.842511 -4.619803
                CHANNELS 3 Zrotation Xrotation Yrotation
                End Site
                {
                  OFFSET 0 0 0
                }
              }
              JOINT ThumbLeft
              {
                OFFSET 2.719967 0.679203 -0.073551
                CHANNELS 3 Zrotation Xrotation Yrotation
                End Site
                {
                  OFFSET 0 0 0
                }
              }
            }
          }
        }
      }
      JOINT ShoulderRight
      {
        OFFSET 16.241248 -3.850069 3.293669
        CHANNELS 3 Zrotation Xrotation Yrotation
        JOINT ElbowRight
        {
          OFFSET 4.752641 -22.320927 2.552842
          CHANNELS 3 Zrotation Xrotation Yrotation
          JOINT WristRight
          {
            OFFSET -8.502482 -15.430887 -13.684107
            CHANNELS 3 Zrotation Xrotation Yrotation
            JOINT HandRight
            {
              OFFSET -0.809620 -2.475017 2.077776
              CHANNELS 3 Zrotation Xrotation Yrotation
              JOINT HandTipRight
              {
                OFFSET -1.017203 -2.015719 -1.870787
                CHANNELS 3 Zrotation Xrotation Yrotation
                End Site
                {
                  OFFSET 0 0 0
                }
              }
              JOINT ThumbRight
              {
                OFFSET 2.445500 -1.480458 -1.673127
                CHANNELS 3 Zrotation Xrotation Yrotation
                End Site
                {
                  OFFSET 0 0 0
                }
              }
            }
          }
        }
      }
    }
  }
  JOINT HipLeft
  {
    OFFSET -6.812427 2.680815 -4.330832
    CHANNELS 3 Zrotation Xrotation Yrotation
    JOINT KneeLeft
    {
      OFFSET -7.166840 -29.835587 0.478071
      CHANNELS 3 Zrotation Xrotation Yrotation
      JOINT AnkleLeft
      {
        OFFSET -0.293826 -46.382972 12.191924
        CHANNELS 3 Zrotation Xrotation Yrotation
        JOINT FootLeft
        {
          OFFSET -1.982359 -5.714545 -3.755688
          CHANNELS 3 Zrotation Xrotation Yrotation
          End Site
          {
            OFFSET 0 0 0
          }
        }
      }
    }
  }
  JOINT HipRight
  {
    OFFSET 5.900576 -0.159504 -1.780195
    CHANNELS 3 Zrotation Xrotation Yrotation
    JOINT KneeRight
    {
      OFFSET 2.279837 -28.713122 1.759290
      CHANNELS 3 Zrotation Xrotation Yrotation
      JOINT AnkleRight
      {
        OFFSET -0.221282 -46.042261 10.845852
        CHANNELS 3 Zrotation Xrotation Yrotation
        JOINT FootRight
        {
          OFFSET 6.041526 -5.878820 -5.623797
          CHANNELS 3 Zrotation Xrotation Yrotation
          End Site
          {
            OFFSET 0 0 0
          }
        }
      }
    }
  }
}
MOTION
Frames: 10
Frame Time: 0.033333
44.331143 78.231010 353.102671 -1.002742 -2.509915 -2.606266 -0.065942 -0.158778 2.528310 -0.062327 -0.111637 -0.071725 10.581627 -1.119991 2.775142 0.000000 0.000000 0.000000 4.569060 -0.059994 1.573614 -1.003843 -2.079381 -2.335022 -22.167149 2.773790 9.558300 4.036487 -30.998095 -9.519364 0.000000 0.000000 0.000000 0.000000 0.000000 0.000000 1.374924 -1.491971 -0.780948 -16.953559 9.746590 12.930773 0.665450 23.177244 -37.566809 22.697827 -39.334572 58.499112 0.000000 0.000000 0.000000 0.000000 0.000000 0.000000 8.274668 -3.641165 4.341127 -0.794203 -0.240213 0.033368 -25.673880 -22.771639 21.862388 0.000000 0.000000 0.000000 -4.954103 39.249255 7.664597 7.902501 -38.327910 2.695908 -20.044908 6.903401 21.748780 0.000000 0.000000 0.000000
43.853979 77.671896 350.743659 -1.282177 -2.928189 -0.915525 -0.146296 0.049346 0.817128 0.017797 -0.105842 -0.084276 12.547229 -0.714361 3.041786 0.000000 0.000000 0.000000 4.599207 -1.173156 2.027693 -1.820627 -0.923505 -2.244613 -25.657762 2.106615 10.956896 7.833623 -32.384569 -12.772972 0.000000 0.000000 0.000000 0.000000 0.000000 0.000000 2.665990 -2.742492 -0.955986 -18.223673 11.446012 13.501862 -1.517156 6.766270 -30.013268 7.361711 -28.110096 47.013726 0.000000 0.000000 0.000000 0.000000 0.000000 0.000000 8.547422 -4.891556 3.033372 -0.112582 -0.335377 -0.144066 -30.935808 -23.715545 25.759572 0.000000 0.000000 0.000000 -5.013332 40.786481 6.229492 8.405610 -32.839210 2.258304 -23.443363 4.563000 29.231540 0.000000 0.000000 0.000000
43.641436 77.015684 347.972181 -1.445278 -3.335819 1.421857 -0.178707 -0.046101 -1.539812 -0.044788 0.027736 -0.095956 14.186560 -1.044641 3.469683 0.000000 0.000000 0.000000 4.869054 -2.776022 2.749230 -3.468054 0.932589 -2.033974 -28.355279 3.860935 13.559822 9.796387 -36.960877 -17.807056 0.000000 0.000000 0.000000 0.000000 0.000000 0.000000 3.858841 -3.018218 -0.976480 -20.175743 12.926615 14.179377 -1.322714 0.188454 -28.089896 2.961705 -23.020048 44.207948 0.000000 0.000000 0.000000 0.000000 0.000000 0.000000 8.540692 -7.366491 1.423378 0.446383 0.832884 -0.732190 -33.764404 -16.916093 25.909540 0.000000 0.000000 0.000000 -3.417158 39.321009 3.080985 7.725544 -23.808821 1.230248 -26.456325 -1.142499 32.845099 0.000000 0.000000 0.000000
43.537581 76.402375 345.171953 -1.363993 -3.610689 5.189630 -0.177374 -0.323410 -5.312719 -0.247763 -0.026536 -0.105286 15.280147 -0.536537 3.563182 0.000000 0.000000 0.000000 4.938403 -3.456607 3.189464 -4.949599 3.339313 -1.607762 -31.451462 3.384103 15.256665 13.937528 -38.941612 -21.774137 0.000000 0.000000 0.000000 0.000000 0.000000 0.000000 5.861059 -2.377975 -0.799230 -23.804396 14.217071 14.960633 -1.340623 -2.158158 -29.392894 5.055098 -21.441496 44.331391 0.000000 0.000000 0.000000 0.000000 0.000000 0.000000 7.517531 -9.788968 -1.745641 1.443865 1.567541 -1.262810 -35.355508 -12.170442 26.190328 0.000000 0.000000 0.000000 -0.687621 36.894698 -1.989362 6.751611 -14.956883 0.324315 -30.001001 -7.703992 34.605141 0.000000 0.000000 0.000000
43.201790 75.791977 342.060107 -1.945225 -4.171668 7.261820 -0.107117 -0.422408 -7.440286 -0.348905 -0.053839 -0.134618 17.391554 0.011680 3.743326 0.000000 0.000000 0.000000 5.443614 -4.670226 3.851680 -7.164997 3.762309 -0.743387 -32.531455 5.261588 17.195205 16.310541 -40.445210 -24.159203 0.000000 0.000000 0.000000 0.000000 0.000000 0.000000 7.922711 -0.926831 -0.573005 -26.278645 14.435219 15.018198 -1.496361 0.578944 -32.276780 9.149631 -23.184735 46.794063 0.000000 0.000000 0.000000 0.000000 0.000000 0.000000 7.602910 -11.243363 -3.455149 1.923519 1.677036 -1.643359 -34.116218 -4.520321 24.055528 0.000000 0.000000 0.000000 2.050760 34.693133 -5.020906 5.277328 -8.408023 -0.467337 -32.265907 -11.080925 36.377978 0.000000 0.000000 0.000000
42.507017 75.240384 339.191904 -2.964725 -5.367279 8.825829 -0.083181 -0.524488 -9.123496 -0.379319 0.006129 -0.180421 19.719965 1.623084 3.515546 0.000000 0.000000 0.000000 6.936273 -5.444620 4.625048 -10.322156 3.832351 0.382596 -31.540950 5.957541 16.941192 18.064018 -36.471666 -20.773240 0.000000 0.000000 0.000000 0.000000 0.000000 0.000000 7.452431 1.871928 -0.491033 -25.075061 13.424427 14.443922 -1.178543 8.629477 -36.674457 14.422077 -28.364003 52.701405 0.000000 0.000000 0.000000 0.000000 0.000000 0.000000 8.943804 -11.481421 -4.940811 1.486643 0.784620 -1.715762 -29.842308 1.430121 20.415576 0.000000 0.000000 0.000000 6.167825 34.770423 -7.665578 3.039770 -6.390517 -1.375566 -35.174260 -12.873697 39.278637 0.000000 0.000000 0.000000
41.797532 74.916739 336.191881 -4.056372 -6.511568 11.950878 -0.062367 -0.351921 -12.384303 -0.396470 -0.150271 -0.239126 22.265829 3.188920 3.226002 0.000000 0.000000 0.000000 8.997750 -5.852335 5.292551 -13.988275 2.018198 1.633616 -30.593598 7.587213 17.226400 20.724636 -34.085069 -19.970884 0.000000 0.000000 0.000000 0.000000 0.000000 0.000000 5.707590 5.509999 -0.146766 -21.932342 11.184413 13.209372 0.099674 22.849953 -44.297467 29.188120 -34.898710 64.146757 0.000000 0.000000 0.000000 0.000000 0.000000 0.000000 10.351252 -11.569681 -8.192069 0.510534 0.375689 -1.669887 -27.299982 -6.446113 21.797684 0.000000 0.000000 0.000000 11.293695 33.827860 -12.198453 1.220990 -5.879751 -1.950097 -37.888631 -13.848819 41.596940 0.000000 0.000000 0.000000
41.237066 74.920011 333.218691 -4.988712 -7.898369 12.999813 -0.004901 -0.088909 -13.578418 -0.373797 0.039594 -0.272579 24.562702 3.781862 3.197865 0.000000 0.000000 0.000000 11.174003 -5.999462 5.827816 -17.400400 -1.227672 2.555452 -28.470947 4.262510 12.023170 20.901191 -30.249641 -18.724026 0.000000 0.000000 0.000000 0.000000 0.000000 0.000000 2.530944 8.027235 0.242129 -17.006423 8.881135 12.426449 9.519408 39.496923 -52.092208 50.185542 -41.883945 77.915635 0.000000 0.000000 0.000000 0.000000 0.000000 0.000000 11.257842 -11.092145 -9.453468 0.217071 0.459630 -1.801343 -31.299910 -1.988681 23.680740 0.000000 0.000000 0.000000 14.687190 33.308836 -14.228882 -0.380487 -7.555256 -2.357684 -38.882167 -10.766578 46.593834 0.000000 0.000000 0.000000
40.646742 74.897006 330.063038 -5.674120 -9.448426 13.338955 0.097566 -0.026060 -14.076408 -0.285301 0.213065 -0.292106 25.143571 5.146250 2.675268 0.000000 0.000000 0.000000 12.917320 -5.662109 6.219788 -20.564780 -5.578991 3.260285 -21.919715 4.838037 5.950054 23.192033 -15.968048 -11.457147 0.000000 0.000000 0.000000 0.000000 0.000000 0.000000 -2.277900 8.110416 0.177520 -5.454887 5.903160 10.097673 29.879428 57.011234 -60.207201 84.371085 -54.357114 109.399883 0.000000 0.000000 0.000000 0.000000 0.000000 0.000000 11.726329 -10.409002 -10.009143 0.273865 0.501770 -2.018027 -29.202069 -2.453883 22.899113 0.000000 0.000000 0.000000 17.001223 33.256406 -15.383598 -1.089131 -9.460586 -2.343191 -40.380726 -8.719996 49.996913 0.000000 0.000000 0.000000
40.112656 74.998369 327.614349 -6.187475 -11.094156 11.513731 0.239624 0.075459 -12.413337 -0.166684 0.320080 -0.309179 25.863992 5.418645 2.579736 0.000000 0.000000 0.000000 14.282273 -4.863818 6.386676 -22.180972 -9.057745 3.198472 -16.169391 4.189450 -0.650303 19.907483 -2.553633 -2.897305 0.000000 0.000000 0.000000 0.000000 0.000000 0.000000 -6.609016 9.964622 0.768542 -0.789501 5.433325 10.207249 61.064188 62.392945 -76.323706 111.572481 -60.820125 140.231040 0.000000 0.000000 0.000000 0.000000 0.000000 0.000000 11.843999 -8.922974 -8.480829 1.157506 0.760095 -2.285363 -22.194096 -0.386646 16.925256 0.000000 0.000000 0.000000 17.505642 34.470465 -14.052895 -0.910305 -11.333863 -1.962783 -43.177567 -8.785433 52.121432 0.000000 0.000000 0.000000
